<svg width="42" height="32" viewBox="0 0 42 32" fill="none" xmlns="http://www.w3.org/2000/svg">
<path fill-rule="evenodd" clip-rule="evenodd" d="M26.4022 24.7059C31.1262 24.7059 34.9558 20.7884 34.9558 15.9559C34.9558 11.1234 31.1262 7.20587 26.4022 7.20587C21.6781 7.20587 17.8485 11.1234 17.8485 15.9559C17.8485 20.7884 21.6781 24.7059 26.4022 24.7059Z" stroke="#223747" stroke-width="1.53639" stroke-linejoin="round"/>
<path fill-rule="evenodd" clip-rule="evenodd" d="M26.9053 0C26.3496 0 25.899 0.450541 25.899 1.00631V3.11134C25.899 3.66711 26.3496 4.11765 26.9053 4.11765C27.4611 4.11765 27.9116 3.66711 27.9116 3.11134V1.00631C27.9116 0.450541 27.4611 0 26.9053 0Z" />
<path fill-rule="evenodd" clip-rule="evenodd" d="M37.9748 16.4706C37.9748 15.8981 38.4295 15.4412 38.9905 15.4412H40.9843C41.5539 15.4412 42 15.902 42 16.4706C42 17.0431 41.5452 17.5 40.9843 17.5H38.9905C38.4209 17.5 37.9748 17.0391 37.9748 16.4706Z" />
<path fill-rule="evenodd" clip-rule="evenodd" d="M14.8536 4.68991C14.467 5.08539 14.467 5.71721 14.8536 6.11269L16.2767 7.56849C16.6759 7.97687 17.3329 7.97687 17.7321 7.56849C18.1187 7.17302 18.1187 6.54119 17.7321 6.14572L16.309 4.68991C15.9098 4.28154 15.2528 4.28154 14.8536 4.68991Z" />
<path fill-rule="evenodd" clip-rule="evenodd" d="M35.0722 24.3433C34.6856 24.7388 34.6856 25.3706 35.0722 25.7661L36.4954 27.2219C36.8946 27.6302 37.5516 27.6302 37.9508 27.2219C38.3374 26.8264 38.3374 26.1946 37.9508 25.7991L36.5277 24.3433C36.1285 23.9349 35.4714 23.9349 35.0722 24.3433Z" />
<path fill-rule="evenodd" clip-rule="evenodd" d="M35.0722 7.56848C35.4714 7.97685 36.1285 7.97685 36.5277 7.56848L37.9508 6.11267C38.3374 5.7172 38.3374 5.08537 37.9508 4.6899C37.5516 4.28153 36.8946 4.28153 36.4954 4.6899L35.0722 6.14571C34.6856 6.54118 34.6856 7.17301 35.0722 7.56848Z" />
<path fill-rule="evenodd" clip-rule="evenodd" d="M25.999 19.4327C25.999 19.299 25.999 19.0984 25.999 18.9647C25.999 14.5518 22.4465 10.9412 18.1046 10.9412C13.7626 10.9412 10.2101 14.5518 10.2101 18.9647C10.2101 19.767 10.3417 20.5694 10.5391 21.3049C9.55228 20.3019 8.17076 19.6333 6.59187 19.6333C3.4999 19.6333 1 22.1741 1 25.3167C1 28.4592 3.4999 31 6.59187 31C9.68385 31 19.6834 31 22.3807 31C25.8016 31 28.6304 28.1249 28.6304 24.648C28.6304 22.5084 27.5778 20.6363 25.999 19.4327Z" stroke="#223747" stroke-width="1.539" stroke-linecap="round" stroke-linejoin="round"/>
</svg>
