<svg width="32" height="32" viewBox="0 0 32 32" fill="none" xmlns="http://www.w3.org/2000/svg">
<path fill-rule="evenodd" clip-rule="evenodd" d="M16 24.7742C20.8458 24.7742 24.7742 20.8459 24.7742 16C24.7742 11.1542 20.8458 7.22583 16 7.22583C11.1541 7.22583 7.2258 11.1542 7.2258 16C7.2258 20.8459 11.1541 24.7742 16 24.7742Z" stroke="#223747" stroke-width="1.53639" stroke-linejoin="round"/>
<path fill-rule="evenodd" clip-rule="evenodd" d="M16.5161 0C15.946 0 15.4839 0.462157 15.4839 1.03226V3.09677C15.4839 3.66687 15.946 4.12903 16.5161 4.12903C17.0862 4.12903 17.5484 3.66687 17.5484 3.09677V1.03226C17.5484 0.462158 17.0862 0 16.5161 0Z" fill="#223747"/>
<path fill-rule="evenodd" clip-rule="evenodd" d="M16.5161 27.871C15.946 27.871 15.4839 28.3331 15.4839 28.9032V30.9677C15.4839 31.5378 15.946 32 16.5161 32C17.0862 32 17.5484 31.5378 17.5484 30.9677V28.9032C17.5484 28.3331 17.0862 27.871 16.5161 27.871Z" fill="#223747"/>
<path fill-rule="evenodd" clip-rule="evenodd" d="M0 16.5161C0 15.9421 0.466488 15.4839 1.04193 15.4839H3.0871C3.67138 15.4839 4.12903 15.946 4.12903 16.5161C4.12903 17.0902 3.66254 17.5484 3.0871 17.5484H1.04193C0.457655 17.5484 0 17.0862 0 16.5161Z" fill="#223747"/>
<path fill-rule="evenodd" clip-rule="evenodd" d="M27.871 16.5161C27.871 15.9421 28.3375 15.4839 28.9129 15.4839H30.9581C31.5423 15.4839 32 15.946 32 16.5161C32 17.0902 31.5335 17.5484 30.9581 17.5484H28.9129C28.3286 17.5484 27.871 17.0862 27.871 16.5161Z" fill="#223747"/>
<path fill-rule="evenodd" clip-rule="evenodd" d="M4.17016 4.68628C3.76704 5.0894 3.76704 5.74299 4.17016 6.14612L5.63 7.60595C6.03312 8.00907 6.68671 8.00907 7.08983 7.60595C7.49295 7.20283 7.49295 6.54924 7.08983 6.14612L5.63 4.68628C5.22687 4.28316 4.57328 4.28316 4.17016 4.68628Z" fill="#223747"/>
<path fill-rule="evenodd" clip-rule="evenodd" d="M24.9102 24.394C24.5071 24.7972 24.5071 25.4508 24.9102 25.8539L26.37 27.3137C26.7731 27.7168 27.4267 27.7168 27.8299 27.3137C28.233 26.9106 28.233 26.257 27.8299 25.8539L26.37 24.394C25.9669 23.9909 25.3133 23.9909 24.9102 24.394Z" fill="#223747"/>
<path fill-rule="evenodd" clip-rule="evenodd" d="M4.17017 27.3137C4.57329 27.7168 5.22688 27.7168 5.63 27.3137L7.08983 25.8539C7.49296 25.4508 7.49296 24.7972 7.08984 24.3941C6.68671 23.9909 6.03312 23.9909 5.63 24.3941L4.17017 25.8539C3.76705 26.257 3.76705 26.9106 4.17017 27.3137Z" fill="#223747"/>
<path fill-rule="evenodd" clip-rule="evenodd" d="M24.9102 7.60596C25.3133 8.00908 25.9669 8.00908 26.37 7.60596L27.8298 6.14613C28.2329 5.743 28.2329 5.08941 27.8298 4.68629C27.4267 4.28317 26.7731 4.28317 26.37 4.68629L24.9102 6.14613C24.507 6.54925 24.507 7.20284 24.9102 7.60596Z" fill="#223747"/>
</svg>
