<svg width="33" height="23" viewBox="0 0 33 23" fill="none" xmlns="http://www.w3.org/2000/svg">
<path id="Shape" fill-rule="evenodd" clip-rule="evenodd" d="M29.0476 9.89C29.0476 9.75 29.0476 9.54 29.0476 9.4C29.0476 4.78 25.0619 1 20.1905 1C15.319 1 11.3333 4.78 11.3333 9.4C11.3333 10.24 11.481 11.08 11.7024 11.85C10.5952 10.8 9.04524 10.1 7.27381 10.1C3.80476 10.1 1 12.76 1 16.05C1 19.34 3.80476 22 7.27381 22C10.7429 22 21.9619 22 24.9881 22C28.8262 22 32 18.99 32 15.35C32 13.11 30.819 11.15 29.0476 9.89Z" stroke="#223747" stroke-width="1.63829" stroke-linecap="round" stroke-linejoin="round"/>
</svg>
