<svg width="40" height="38" viewBox="0 0 40 38" fill="white" xmlns="http://www.w3.org/2000/svg">
<g id="Group 4">
<g id="Shape Copy">
<path fill-rule="evenodd" clip-rule="evenodd" d="M10.5952 22.75H7.27381C3.80476 22.75 1 19.995 1 16.5875C1 13.18 3.80476 10.425 7.27381 10.425C9.04524 10.425 10.5952 11.15 11.7024 12.2375C11.481 11.44 11.3333 10.57 11.3333 9.7C11.3333 4.915 15.319 1 20.1905 1C25.0619 1 29.0476 4.915 29.0476 9.7C29.0476 9.845 29.0476 10.0625 29.0476 10.2075C30.819 11.44 32 13.5425 32 15.8625C32 19.6325 28.8262 22.75 24.9881 22.75H23.1429" />
<path d="M10.5952 22.75H7.27381C3.80476 22.75 1 19.995 1 16.5875C1 13.18 3.80476 10.425 7.27381 10.425C9.04524 10.425 10.5952 11.15 11.7024 12.2375C11.481 11.44 11.3333 10.57 11.3333 9.7C11.3333 4.915 15.319 1 20.1905 1C25.0619 1 29.0476 4.915 29.0476 9.7C29.0476 9.845 29.0476 10.0625 29.0476 10.2075C30.819 11.44 32 13.5425 32 15.8625C32 19.6325 28.8262 22.75 24.9881 22.75H23.1429" stroke="#223747" stroke-width="1.71" stroke-linecap="round" stroke-linejoin="round"/>
</g>
<g id="Shape">
<path fill-rule="evenodd" clip-rule="evenodd" d="M17.5952 29.75H14.2738C10.8048 29.75 8 26.995 8 23.5875C8 20.18 10.8048 17.425 14.2738 17.425C16.0452 17.425 17.5952 18.15 18.7024 19.2375C18.481 18.44 18.3333 17.57 18.3333 16.7C18.3333 11.915 22.319 8 27.1905 8C32.0619 8 36.0476 11.915 36.0476 16.7C36.0476 16.845 36.0476 17.0625 36.0476 17.2075C37.819 18.44 39 20.5425 39 22.8625C39 26.6325 35.8262 29.75 31.9881 29.75H30.1429" />
<path d="M17.5952 29.75H14.2738C10.8048 29.75 8 26.995 8 23.5875C8 20.18 10.8048 17.425 14.2738 17.425C16.0452 17.425 17.5952 18.15 18.7024 19.2375C18.481 18.44 18.3333 17.57 18.3333 16.7C18.3333 11.915 22.319 8 27.1905 8C32.0619 8 36.0476 11.915 36.0476 16.7C36.0476 16.845 36.0476 17.0625 36.0476 17.2075C37.819 18.44 39 20.5425 39 22.8625C39 26.6325 35.8262 29.75 31.9881 29.75H30.1429" stroke="#223747" stroke-width="1.71" stroke-linecap="round" stroke-linejoin="round"/>
</g>
<path id="Shape_2" fill-rule="evenodd" clip-rule="evenodd" d="M27.9286 32.4325C27.9286 34.6075 26.0833 36.42 23.869 36.42C21.6548 36.42 19.8095 34.6075 19.8095 32.4325C19.8095 30.2575 23.869 25.255 23.869 25.255C23.869 25.255 27.9286 30.2575 27.9286 32.4325Z" stroke="#223747" stroke-width="1.71" stroke-linecap="round"/>
</g>
</svg>
