<svg width="23" height="23" viewBox="0 0 23 23"  fill="#223747" xmlns="http://www.w3.org/2000/svg">
<g opacity="0.803693">
<path fill-rule="evenodd" clip-rule="evenodd" d="M11.5 22.862C5.22494 22.862 0.138 17.7751 0.138 11.5C0.138 5.22494 5.22494 0.138 11.5 0.138C17.7751 0.138 22.862 5.22494 22.862 11.5C22.862 17.7751 17.7751 22.862 11.5 22.862ZM19.8885 17.3159C21.0347 15.6658 21.7065 13.6614 21.7065 11.5C21.7065 5.86308 17.1369 1.29346 11.5 1.29346C5.86308 1.29346 1.29346 5.86308 1.29346 11.5C1.29346 13.574 1.91207 15.5035 2.97485 17.1141L3.25849 16.1176C3.59633 14.6434 4.99829 13.6183 6.57893 13.6183H9.03428C9.14043 13.6183 9.22686 13.5296 9.22686 13.3738C9.22686 13.3179 9.19301 13.2538 9.10741 13.1905C7.35576 11.8908 6.76188 9.8043 6.76188 7.70625C6.76188 4.70633 8.37724 3.02664 11.3067 3.02664C14.2666 3.02664 15.9574 4.73141 15.9574 7.70625C15.9574 9.87411 15.1706 12.0148 13.5826 13.1906C13.4967 13.2541 13.4635 13.3191 13.4635 13.4258C13.4635 13.531 13.5509 13.6183 13.6561 13.6183H16.2944C17.8825 13.6183 19.2895 14.6533 19.6198 16.1396L19.8885 17.3159ZM18.9532 18.4731L18.4917 16.3895C18.2837 15.4536 17.3603 14.7738 16.2944 14.7738H13.6561C12.9128 14.7738 12.3081 14.1691 12.3081 13.4258C12.3081 12.9443 12.5218 12.538 12.8954 12.2616C14.3012 11.2208 14.8019 9.22664 14.8019 7.70625C14.8019 5.36741 13.6263 4.1821 11.3067 4.1821C9.02561 4.1821 7.91734 5.33467 7.91734 7.70625C7.91734 8.44863 8.0531 10.9695 9.79592 12.2626C10.1686 12.538 10.3823 12.9434 10.3823 13.3738C10.3823 14.1691 9.77762 14.7738 9.03428 14.7738H6.57893C5.51302 14.7738 4.58866 15.4536 4.38164 16.3895L3.88768 18.2991C5.75671 20.3903 8.47464 21.7065 11.5 21.7065C14.4406 21.7065 17.0907 20.463 18.9532 18.4731Z"/>
</g>
</svg>
