<svg width="26" height="22" viewBox="0 0 26 22" fill="#223747" xmlns="http://www.w3.org/2000/svg">
<g opacity="0.803693">
<path fill-rule="evenodd" clip-rule="evenodd" d="M6.2859 21.4602L10.4435 17.4546H22.2908C24.0367 17.4546 25.4521 16.0937 25.4521 14.4149V3.41161C25.4521 1.73284 24.0367 0.371918 22.2908 0.371918H3.30255C1.55662 0.371918 0.141266 1.73284 0.141266 3.41161V14.4149C0.141266 16.0937 1.55662 17.4546 3.30255 17.4546H5.20613V21.0307C5.20613 21.5727 5.88778 21.8438 6.2859 21.4602ZM10.1812 16.2387C10.0133 16.2387 9.85229 16.303 9.73369 16.4172L6.47064 19.561V16.8467C6.47064 16.5109 6.18757 16.2387 5.83838 16.2387H3.30255C2.25499 16.2387 1.40578 15.4222 1.40578 14.4149V3.41161C1.40578 2.40435 2.25499 1.5878 3.30255 1.5878H22.2908C23.3384 1.5878 24.1876 2.40435 24.1876 3.41161V14.4149C24.1876 15.4222 23.3384 16.2387 22.2908 16.2387H10.1812ZM6.46649 8.97243C6.1173 8.97243 5.83423 8.68476 5.83423 8.32991C5.83423 7.97505 6.1173 7.68738 6.46649 7.68738H16.5862C16.9354 7.68738 17.2184 7.97505 17.2184 8.32991C17.2184 8.68476 16.9354 8.97243 16.5862 8.97243H6.46649ZM5.83423 11.9775C5.83423 12.3324 6.1173 12.6201 6.46649 12.6201H13.4243C13.7735 12.6201 14.0565 12.3324 14.0565 11.9775C14.0565 11.6227 13.7735 11.335 13.4243 11.335H6.46649C6.1173 11.335 5.83423 11.6227 5.83423 11.9775Z" />
</g>
</svg>
