<svg width="21" height="23" viewBox="0 0 21 23" fill="#223747" xmlns="http://www.w3.org/2000/svg">
<path fill-rule="evenodd" clip-rule="evenodd" d="M15.4184 2.21053H19.3421C20.2577 2.21053 21 2.95279 21 3.86842V18.2195C21 20.356 19.268 22.0879 17.1316 22.0879H3.86842C1.73195 22.0879 0 20.356 0 18.2195V3.86842C0 2.95279 0.742265 2.21053 1.65789 2.21053H5.58159C5.83761 0.949288 6.95268 0 8.28947 0H12.7105C14.0473 0 15.1624 0.949288 15.4184 2.21053ZM5.58159 3.31579H1.65789C1.35268 3.31579 1.10526 3.56321 1.10526 3.86842V18.2195C1.10526 19.7455 2.34237 20.9826 3.86842 20.9826H17.1316C18.6576 20.9826 19.8947 19.7455 19.8947 18.2195V3.86842C19.8947 3.56321 19.6473 3.31579 19.3421 3.31579H15.4184C15.1624 4.57703 14.0473 5.52632 12.7105 5.52632H8.28947C6.95268 5.52632 5.83761 4.57703 5.58159 3.31579ZM6.63158 2.76316C6.63158 1.84753 7.37384 1.10526 8.28947 1.10526H12.7105C13.6262 1.10526 14.3684 1.84753 14.3684 2.76316C14.3684 3.67879 13.6262 4.42105 12.7105 4.42105H8.28947C7.37384 4.42105 6.63158 3.67879 6.63158 2.76316ZM14.5533 9.81776C15.7805 11.045 15.7805 13.0346 14.5533 14.2618L12.4538 16.3613C11.3748 17.4403 9.62523 17.4403 8.54615 16.3613L6.44671 14.2618C5.21952 13.0346 5.21952 11.045 6.44671 9.81776C7.55081 8.71367 9.27209 8.60292 10.5 9.48551C11.7279 8.60292 13.4492 8.71367 14.5533 9.81776ZM11.6723 15.5797C11.0249 16.2272 9.97514 16.2272 9.32769 15.5797L7.22825 13.4803C6.43269 12.6847 6.43269 11.3949 7.22825 10.5993C8.02381 9.80374 9.31367 9.80374 10.1092 10.5993L10.5 10.9901L10.8908 10.5993C11.6863 9.80374 12.9762 9.80374 13.7718 10.5993C14.5673 11.3949 14.5673 12.6847 13.7718 13.4803L11.6723 15.5797Z" />
</svg>
