<svg width="33" height="32" viewBox="0 0 33 32"  fill="#FA8B6E" xmlns="http://www.w3.org/2000/svg">
<path fill-rule="evenodd" clip-rule="evenodd" d="M10.458 9.36622C7.49879 9.63375 5.28 12.1196 5.28 15.127C5.28 18.2558 7.66927 20.7743 10.946 20.9062C10.9731 20.9098 11.0008 20.9117 11.0289 20.9117H22.572C22.6732 20.9199 22.8168 20.9248 22.961 20.9248C26.4075 20.9248 29.1522 18.3104 29.1522 15.127C29.1522 12.0502 26.8552 9.65768 23.5421 9.40676C23.2557 6.3026 20.3306 3.80769 16.9651 3.80769C13.624 3.80769 10.7598 6.27362 10.458 9.36622ZM9.10594 24.4999C9.10594 25.7558 10.1648 26.7739 11.4709 26.7739C12.777 26.7739 13.8358 25.7558 13.8358 24.4999C13.8358 23.244 12.777 22.2259 11.4709 22.2259C10.1648 22.2259 9.10594 23.244 9.10594 24.4999Z"/>
</svg>
